HIERARCHY
ROOT joint_Root
{
	OFFSET 0.0 0.0 0.0
	CHANNELS 6 Xposition Yposition Zposition Zrotation Xrotation Yrotation 
	JOINT Hips
	{
		OFFSET -17.1583 93.1646 452.98
		CHANNELS 6 Xposition Yposition Zposition Zrotation Xrotation Yrotation 
		JOINT Spine
		{
			OFFSET 15.7357 0.0 0.0
			CHANNELS 6 Xposition Yposition Zposition Zrotation Xrotation Yrotation 
			JOINT Chest
			{
				OFFSET 8.98455 -0.406207 0.0
				CHANNELS 6 Xposition Yposition Zposition Zrotation Xrotation Yrotation 
				JOINT Neck
				{
					OFFSET 16.3773 0.0 0.0
					CHANNELS 6 Xposition Yposition Zposition Zrotation Xrotation Yrotation 
					JOINT Head
					{
						OFFSET 6.45672 0.0 0.0
						CHANNELS 6 Xposition Yposition Zposition Zrotation Xrotation Yrotation 
						End Site
						{
							OFFSET 0.0 0.0 0.0
						}
					}
				}
				JOINT Shoulder_L
				{
					OFFSET 12.9942 -0.242716 4.98039
					CHANNELS 6 Xposition Yposition Zposition Zrotation Xrotation Yrotation 
					JOINT UpperArm_L
					{
						OFFSET 5.34809 0.0 0.0
						CHANNELS 6 Xposition Yposition Zposition Zrotation Xrotation Yrotation 
						JOINT LowerArm_L
						{
							OFFSET 24.3286 1.87007e-05 0.0
							CHANNELS 6 Xposition Yposition Zposition Zrotation Xrotation Yrotation 
							JOINT Hand_L
							{
								OFFSET 22.2916 0.0 0.0
								CHANNELS 6 Xposition Yposition Zposition Zrotation Xrotation Yrotation 
								End Site
								{
									OFFSET 0.0 0.0 0.0
								}
							}
						}
					}
				}
				JOINT Shoulder_R
				{
					OFFSET 12.9945 -0.242716 -4.98039
					CHANNELS 6 Xposition Yposition Zposition Zrotation Xrotation Yrotation 
					JOINT UpperArm_R
					{
						OFFSET -5.34813 0.0 0.0
						CHANNELS 6 Xposition Yposition Zposition Zrotation Xrotation Yrotation 
						JOINT LowerArm_R
						{
							OFFSET -24.3289 0.000322201 0.0
							CHANNELS 6 Xposition Yposition Zposition Zrotation Xrotation Yrotation 
							JOINT Hand_R
							{
								OFFSET -22.2915 -0.000108084 0.0
								CHANNELS 6 Xposition Yposition Zposition Zrotation Xrotation Yrotation 
								End Site
								{
									OFFSET 0.0 0.0 0.0
								}
							}
						}
					}
				}
			}
		}
		JOINT UpperLeg_L
		{
			OFFSET -2.19248 -6.46944 0.0
			CHANNELS 6 Xposition Yposition Zposition Zrotation Xrotation Yrotation 
			JOINT LowerLeg_L
			{
				OFFSET 39.0811 0.0 -1.23785e-05
				CHANNELS 6 Xposition Yposition Zposition Zrotation Xrotation Yrotation 
				JOINT Foot_L
				{
					OFFSET 40.9854 0.0 -1.26872e-05
					CHANNELS 6 Xposition Yposition Zposition Zrotation Xrotation Yrotation 
					JOINT Toes_L
					{
						OFFSET 11.7543 0.0 0.0
						CHANNELS 6 Xposition Yposition Zposition Zrotation Xrotation Yrotation 
						End Site
						{
							OFFSET 0.0 0.0 0.0
						}
					}
				}
			}
		}
		JOINT UpperLeg_R
		{
			OFFSET -2.19251 6.46944 0.0
			CHANNELS 6 Xposition Yposition Zposition Zrotation Xrotation Yrotation 
			JOINT LowerLeg_R
			{
				OFFSET -39.0811 -0.00228153 -0.0401928
				CHANNELS 6 Xposition Yposition Zposition Zrotation Xrotation Yrotation 
				JOINT Foot_R
				{
					OFFSET -40.9854 0.0 0.0
					CHANNELS 6 Xposition Yposition Zposition Zrotation Xrotation Yrotation 
					JOINT Toes_R
					{
						OFFSET -11.7543 0.0 0.0
						CHANNELS 6 Xposition Yposition Zposition Zrotation Xrotation Yrotation 
						End Site
						{
							OFFSET 0.0 0.0 0.0
						}
					}
				}
			}
		}
	}
}
MOTION
Frames:	4
Frame Time:	0.0333333
0.000000 0.000000 0.000000 0.000000 0.000000 -0.000000 -0.362876 92.551000 -0.292949 87.219300 -1.040140 6.146090 15.735700 0.000005 -0.000001 84.174400 85.998400 -82.726900 8.984550 -0.406207 -0.000000 0.209019 -0.907520 2.894760 16.377300 -0.000001 -0.000001 8.659350 2.501860 -2.093720 6.456720 -0.000001 -0.000000 -4.601190 2.034630 -0.033112 12.994200 -0.242716 4.980390 -93.201800 9.183360 -70.684000 5.348090 -0.000007 -0.000001 -73.583200 18.864800 -0.035777 24.328600 0.000019 0.000005 13.048700 25.645300 -28.169100 22.291600 -0.000001 0.000005 -7.485710 5.070020 5.792550 12.994500 -0.242716 -4.980390 87.384900 7.170850 -69.903100 -5.348130 -0.000001 -0.000004 -69.480300 26.265900 -2.529090 -24.328900 0.000322 -0.000009 2.901490 6.677420 -23.558800 -22.291500 -0.000108 -0.000004 -4.277340 5.270380 0.887822 -2.192480 -6.469440 -0.000000 -178.048000 -3.581240 1.612480 39.081100 -0.000007 -0.000012 0.245083 -0.615806 21.702400 40.985400 -0.000006 -0.000013 3.066120 4.039610 -71.769600 11.754300 -0.000000 0.000003 -0.001252 0.186551 -9.009090 -2.192510 6.469440 -0.000001 -176.036000 7.560410 -174.091000 -39.081100 -0.002282 -0.040193 0.068185 -0.237397 15.280100 -40.985400 0.000008 0.000006 1.330600 4.416010 -70.485100 -11.754300 -0.000006 -0.000006 -0.011182 0.279936 -5.197840
0.000000 0.000000 0.000000 0.000000 0.000000 -0.000000 -0.389978 92.566900 -0.399613 87.213600 -1.006430 5.963360 15.735700 0.000005 -0.000001 83.710300 86.043500 -82.257600 8.984550 -0.406207 -0.000000 0.113382 -0.963668 2.904540 16.377300 -0.000001 -0.000001 8.322840 2.456310 -1.894110 6.456720 -0.000001 -0.000000 -4.907990 2.014470 0.115898 12.994200 -0.242716 4.980390 -93.208600 9.198340 -70.674600 5.348090 -0.000007 -0.000001 -73.383000 16.919100 -0.072614 24.328600 0.000019 0.000005 13.204400 24.682000 -29.330900 22.291600 -0.000001 0.000005 -8.007300 5.054810 6.131010 12.994500 -0.242716 -4.980390 87.416500 7.075670 -69.882400 -5.348130 -0.000001 -0.000004 -69.226200 24.406400 -2.391140 -24.328900 0.000322 -0.000009 3.209630 6.706910 -25.656000 -22.291500 -0.000108 -0.000004 -4.546730 5.249960 1.433850 -2.192480 -6.469440 -0.000000 -178.051000 -3.527100 1.351880 39.081100 -0.000007 -0.000012 0.244240 -0.613764 21.700000 40.985400 -0.000006 -0.000013 3.045700 4.027380 -71.722100 11.754300 -0.000000 0.000003 -0.001298 0.187188 -8.983200 -2.192510 6.469440 -0.000001 -175.953000 7.462930 -174.359000 -39.081100 -0.002282 -0.040193 0.069561 -0.242514 15.275100 -40.985400 0.000008 0.000006 1.329290 4.305930 -70.452900 -11.754300 -0.000006 -0.000006 -0.011756 0.283989 -5.031890
0.000000 0.000000 0.000000 0.000000 0.000000 -0.000000 -0.414059 92.596000 -0.495722 87.183300 -1.033290 5.794880 15.735700 0.000005 -0.000001 83.586500 86.066300 -82.112800 8.984550 -0.406207 -0.000000 0.066471 -0.977564 2.946000 16.377300 -0.000001 -0.000001 7.845970 2.406680 -1.575990 6.456720 -0.000001 -0.000000 -5.363450 2.034320 0.222997 12.994200 -0.242716 4.980390 -93.234900 9.272860 -70.671600 5.348090 -0.000007 -0.000001 -73.002500 14.756300 0.041078 24.328600 0.000019 0.000005 13.027100 22.425900 -31.237300 22.291600 -0.000001 0.000005 -8.397560 5.015870 6.980390 12.994500 -0.242716 -4.980390 87.462600 6.921650 -69.810100 -5.348130 -0.000001 -0.000004 -69.012700 21.739800 -2.097670 -24.328900 0.000322 -0.000009 3.711670 6.768310 -28.835900 -22.291500 -0.000108 -0.000004 -5.263700 5.222930 2.139420 -2.192480 -6.469440 -0.000000 -178.026000 -3.451250 1.158040 39.081100 -0.000007 -0.000012 0.242212 -0.611259 21.616500 40.985400 -0.000006 -0.000013 2.987880 3.913140 -71.664100 11.754300 -0.000000 0.000003 -0.001206 0.185922 -9.034640 -2.192510 6.469440 -0.000001 -175.905000 7.470960 -174.555000 -39.081100 -0.002282 -0.040193 0.063568 -0.222125 15.173100 -40.985400 0.000008 0.000006 1.063690 4.374450 -70.263500 -11.754300 -0.000006 -0.000006 -0.011613 0.282988 -5.072870
0.000000 0.000000 0.000000 0.000000 0.000000 -0.000000 -0.448042 92.626800 -0.607300 87.160500 -1.073080 5.514670 15.735700 0.000005 -0.000001 83.609500 86.130100 -82.110300 8.984550 -0.406207 -0.000000 -0.059961 -0.963591 2.996200 16.377300 -0.000001 -0.000001 7.312860 2.328750 -1.173220 6.456720 -0.000001 -0.000000 -5.996680 2.014660 0.464817 12.994200 -0.242716 4.980390 -93.273300 9.414470 -70.728600 5.348090 -0.000007 -0.000001 -72.414100 12.144300 0.347322 24.328600 0.000019 0.000005 13.278600 20.170100 -34.390100 22.291600 -0.000001 0.000005 -9.184530 4.976880 7.808030 12.994500 -0.242716 -4.980390 87.501400 6.782590 -69.721900 -5.348130 -0.000001 -0.000004 -68.791100 18.377700 -1.460330 -24.328900 0.000322 -0.000009 4.390080 6.654880 -33.529000 -22.291500 -0.000108 -0.000004 -5.875110 5.174780 3.344550 -2.192480 -6.469440 -0.000000 -178.015000 -3.412620 0.851354 39.081100 -0.000007 -0.000012 0.241030 -0.611110 21.525400 40.985400 -0.000006 -0.000013 2.957500 3.879050 -71.615500 11.754300 -0.000000 0.000003 -0.001216 0.186058 -9.029120 -2.192510 6.469440 -0.000001 -175.867000 7.522780 -174.862000 -39.081100 -0.002282 -0.040193 0.058973 -0.206796 15.060000 -40.985400 0.000008 0.000006 0.886680 4.532340 -70.092300 -11.754300 -0.000006 -0.000006 -0.011485 0.282088 -5.109730
